<svg xmlns="http://www.w3.org/2000/svg" version="1.1" xmlns:xlink="http://www.w3.org/1999/xlink" xmlns:svgjs="http://svgjs.com/svgjs" width="512" height="512" x="0" y="0" viewBox="0 0 64 64" style="enable-background:new 0 0 512 512" xml:space="preserve" class=""><g><g xmlns="http://www.w3.org/2000/svg"><path d="m63 0h-62c-.552 0-1 .448-1 1v62c0 .552.448 1 1 1h62c.552 0 1-.448 1-1v-62c0-.552-.448-1-1-1z" fill="#3b2419" data-original="#3b2419" style="" class=""></path><path d="m32 64v-37c0-.552-.448-1-1-1h-20c-.552 0-1 .448-1 1v37z" fill="#f2e6d8" data-original="#f2e6d8" style="" class=""></path><g><path d="m0 12h64v10h-64z" fill="#f2e6d8" data-original="#f2e6d8" style="" class=""></path></g><g><path d="m0 15h64v4h-64z" fill="#a6948d" data-original="#a6948d" style="" class=""></path></g><g><path d="m27 47h-12l-1-2 1-2h12l1 2z" fill="#a6948d" data-original="#a6948d" style="" class=""></path></g><g><circle cx="27" cy="52" fill="#a6948d" r="2" data-original="#a6948d" style="" class=""></circle></g><g><circle cx="15" cy="52" fill="#a6948d" r="2" data-original="#a6948d" style="" class=""></circle></g><path d="m27 30h-12c-.552 0-1 .448-1 1v2c0 .552.448 1 1 1h12c.552 0 1-.448 1-1v-2c0-.552-.448-1-1-1z" fill="#a6948d" data-original="#a6948d" style="" class=""></path><g><path d="m28 58h-2c-.552 0-1-.448-1-1s.448-1 1-1h2c.552 0 1 .448 1 1s-.448 1-1 1z" fill="#3b2419" data-original="#3b2419" style="" class=""></path></g><g><path d="m16 58h-2c-.552 0-1-.448-1-1s.448-1 1-1h2c.552 0 1 .448 1 1s-.448 1-1 1z" fill="#3b2419" data-original="#3b2419" style="" class=""></path></g><g><path d="m6.95 28.25c.021-.082.05-1.25-.95-1.25s-.971 1.168-.95 1.25c-.622.339-1.05.991-1.05 1.75 0 1.104.896 2 2 2s2-.896 2-2c0-.759-.428-1.411-1.05-1.75z" fill="#f2e6d8" data-original="#f2e6d8" style="" class=""></path></g><g><path d="m36.95 28.25c.021-.082.05-1.25-.95-1.25s-.971 1.168-.95 1.25c-.622.339-1.05.991-1.05 1.75 0 1.104.895 2 2 2 1.104 0 2-.896 2-2 0-.759-.428-1.411-1.05-1.75z" fill="#f2e6d8" data-original="#f2e6d8" style="" class=""></path></g><g><path d="m58.95 28.25c.021-.082.05-1.25-.95-1.25s-.971 1.168-.95 1.25c-.622.339-1.05.991-1.05 1.75 0 1.104.895 2 2 2 1.104 0 2-.896 2-2 0-.759-.428-1.411-1.05-1.75z" fill="#f2e6d8" data-original="#f2e6d8" style="" class=""></path></g><path d="m53 27h-12c-.552 0-1 .448-1 1v2c0 .552.448 1 1 1h12c.552 0 1-.448 1-1v-2c0-.552-.448-1-1-1z" fill="#f2e6d8" data-original="#f2e6d8" style="" class=""></path><g><path d="m15 40c-.27 0-.52-.11-.71-.29-.18-.19-.29-.45-.29-.71s.11-.52.29-.71c.37-.37 1.04-.37 1.42 0 .18.19.29.44.29.71s-.11.52-.29.71c-.19.18-.44.29-.71.29z" fill="#3b2419" data-original="#3b2419" style="" class=""></path></g><g><path d="m19 40c-.27 0-.52-.11-.71-.29-.18-.19-.29-.44-.29-.71s.11-.52.29-.71c.37-.37 1.04-.37 1.42 0 .18.19.29.45.29.71s-.11.52-.29.71c-.19.18-.44.29-.71.29z" fill="#3b2419" data-original="#3b2419" style="" class=""></path></g><g><path d="m23 40c-.26 0-.52-.11-.71-.29-.18-.19-.29-.45-.29-.71 0-.27.11-.52.29-.71.38-.37 1.04-.37 1.42 0 .18.19.29.45.29.71s-.11.52-.29.71c-.19.18-.45.29-.71.29z" fill="#3b2419" data-original="#3b2419" style="" class=""></path></g><g><path d="m27 40c-.27 0-.52-.11-.71-.29-.18-.19-.29-.45-.29-.71s.11-.52.29-.71c.37-.37 1.04-.37 1.42 0 .18.19.29.44.29.71s-.11.52-.29.71c-.19.18-.44.29-.71.29z" fill="#3b2419" data-original="#3b2419" style="" class=""></path></g><path d="m23.665 64c-.503-1.316-1.665-6.999-1.665-13 0-.552-.448-1-1-1s-1 .448-1 1c0 6.003-1.163 11.687-1.666 13z" fill="#3b2419" data-original="#3b2419" style="" class=""></path></g></g></svg>