<svg width="80" height="80" viewBox="0 0 80 80" fill="none" xmlns="http://www.w3.org/2000/svg">
<path d="M69.6936 15.4266C67.8166 14.0766 65.6679 15.0891 63.75 15.771C63.75 14.6561 64.0863 13.1024 62.8506 12.5489C62.1476 12.2952 61.4128 12.14 60.6673 12.0875C56.7703 11.663 52.8299 12.2568 49.2311 13.8107C46.3154 15.0389 43.5879 16.6731 41.1296 18.6647C40.9493 18.8082 40.2086 19.5967 40 19.5967C39.7914 19.5967 39.05 18.8081 38.8703 18.6646C36.9083 17.2434 34.8721 15.9276 32.7703 14.7227C28.9486 12.7129 24.657 11.7672 20.3445 11.9844C19.2996 12.0124 18.2641 12.1899 17.2695 12.5114C15.9125 13.0375 16.25 14.576 16.25 15.771C15.2881 15.3848 14.302 15.0616 13.2981 14.8034C12.7514 14.6914 12.1867 14.7017 11.6444 14.8333C11.1021 14.965 10.5955 15.2148 10.161 15.565C9.72647 15.9152 9.37467 16.3571 9.13075 16.859C8.88683 17.361 8.75681 17.9106 8.75 18.4686V49.4482C8.74942 50.2354 8.99676 51.0027 9.45691 51.6413C9.91706 52.2799 10.5667 52.7574 11.3135 53.006L14.4616 54.0554C13.998 54.6931 13.7488 55.4616 13.75 56.25V64.2981C13.7571 64.8656 13.8917 65.4243 14.1437 65.9327C14.3958 66.4412 14.7589 66.8866 15.2062 67.2359C15.6535 67.5852 16.1736 67.8295 16.7281 67.9507C17.2825 68.072 17.8571 68.0671 18.4094 67.9364L39.696 62.6141C39.8955 62.5641 40.1043 62.5641 40.3039 62.6141L61.5905 67.9364C62.1428 68.0665 62.7172 68.0711 63.2714 67.9496C63.8257 67.8282 64.3455 67.5838 64.7928 67.2346C65.24 66.8855 65.6031 66.4403 65.8553 65.9321C66.1075 65.4238 66.2424 64.8655 66.25 64.2981V56.25C66.2512 55.4616 66.002 54.6931 65.5384 54.0554L68.6865 53.006C69.4334 52.7574 70.0829 52.2799 70.5431 51.6413C71.0032 51.0027 71.2506 50.2354 71.25 49.4482V18.4686C71.2533 17.874 71.1136 17.2872 70.8427 16.7579C70.5719 16.2285 70.1778 15.7719 69.6936 15.4266V15.4266ZM18.75 46.9482V45.1536C25.7364 45.2911 33.3165 47.0797 38.75 51.6722V54.5156L25.9864 50.2612L22.214 49.0037C21.2351 48.6775 18.75 48.3301 18.75 46.9482ZM54.0136 50.2607L41.25 54.5156V51.6722C46.6831 47.0797 54.2638 45.2896 61.25 45.1531C61.25 45.9156 61.4824 47.1881 60.9176 47.7977C60.338 48.2064 59.6756 48.4825 58.9774 48.6066L54.0136 50.2607ZM61.25 14.7112V42.6457C57.8536 42.6902 48.5674 43.3194 41.25 48.5109V21.8125C50.8008 13.45 58.7219 14.1791 61.25 14.7112ZM38.75 21.8125V48.511C31.4309 43.3179 22.1461 42.6874 18.75 42.6444V17.2556C18.75 16.7775 18.473 15.1791 18.75 14.7861C19.1804 14.1755 21.9593 14.4351 22.6531 14.4709C28.7065 14.7821 34.2731 17.8955 38.75 21.8125ZM11.25 49.4482V18.4686C11.25 16.9372 12.7643 17.239 13.6865 17.5464C14.5865 17.8464 16.25 18.0699 16.25 19.3017V46.9482C16.25 47.7167 16.0111 48.9829 16.5833 49.6C17.2508 50.0627 18.0124 50.3721 18.8135 50.506L38.75 57.1511V59.5156L17.897 52.5649C16.764 52.2411 15.6504 51.8159 14.5326 51.4434C13.5693 51.1222 11.25 50.8044 11.25 49.4482ZM17.804 65.5107C17.6199 65.5534 17.4287 65.5543 17.2442 65.5135C17.0598 65.4728 16.8867 65.3913 16.7378 65.2751C16.5888 65.1588 16.4677 65.0108 16.3834 64.8418C16.299 64.6728 16.2534 64.487 16.25 64.2981V56.25C16.2523 55.9431 16.3684 55.6479 16.5759 55.4218C16.7834 55.1956 17.0674 55.0545 17.373 55.0257L35.5318 61.0785L17.804 65.5107ZM63.75 56.25V64.2981C63.7466 64.487 63.701 64.6727 63.6166 64.8417C63.5322 65.0108 63.4111 65.1588 63.2622 65.275C63.1132 65.3912 62.9402 65.4727 62.7558 65.5134C62.5713 65.5542 62.3801 65.5532 62.196 65.5106L44.4681 61.0781L62.6269 55.0254C62.9325 55.0541 63.2167 55.1952 63.4242 55.4215C63.6317 55.6478 63.7478 55.943 63.75 56.25V56.25ZM68.75 49.4482C68.75 50.8049 66.4309 51.1222 65.4674 51.4434C64.3496 51.8159 63.236 52.2412 62.103 52.5649L41.25 59.5156V57.1511L61.1865 50.506C61.9879 50.3732 62.7497 50.0637 63.4168 49.6C63.9883 48.9835 63.75 47.7125 63.75 46.9482V19.3017C63.75 18.1154 65.2201 17.9106 66.0875 17.6216C67.0426 17.3034 68.75 16.8141 68.75 18.4686V49.4482Z" fill="#E4C5FF"/>
</svg>
